<?xml version="1.0" encoding="UTF-8"?>
<svg width="18px" height="12px" viewBox="0 0 18 12" version="1.1" xmlns="http://www.w3.org/2000/svg" xmlns:xlink="http://www.w3.org/1999/xlink">
    <!-- Generator: Sketch 58 (84663) - https://sketch.com -->
    <title>ic-arrows-bottom</title>
    <desc>Created with Sketch.</desc>
    <g id="Page-1" stroke="none" stroke-width="1" fill="none" fill-rule="evenodd">
        <g id="listings-wireframe-copy" transform="translate(-317.000000, -396.000000)" fill="#0E1317" fill-rule="nonzero">
            <g id="ic-arrows-bottom" transform="translate(326.000000, 402.000000) rotate(270.000000) translate(-326.000000, -402.000000) translate(320.000000, 393.000000)">
                <path d="M5.25,17.21 C5.68839936,17.5610004 6.31160064,17.5610004 6.75,17.21 L10.84,13.93 C11.2689082,13.5865461 11.3403569,12.9613699 11,12.53 C10.8347799,12.3210187 10.5930024,12.1866014 10.3282977,12.156564 C10.063593,12.1265266 9.79784463,12.2033523 9.59,12.37 L6.78,14.62 L6.78,1.53 C6.78,0.97771525 6.33228475,0.53 5.78,0.53 C5.22771525,0.53 4.78,0.97771525 4.78,1.53 L4.78,14.27 L2.41,12.37 C2.20215537,12.2033523 1.93640703,12.1265266 1.67170229,12.156564 C1.40699755,12.1866014 1.16522006,12.3210187 1,12.53 C0.659643119,12.9613699 0.731091822,13.5865461 1.16,13.93 L5.25,17.21 Z" id="Path"></path>
            </g>
        </g>
    </g>
</svg>